<svg width="9" height="12" fill="none" xmlns="http://www.w3.org/2000/svg"><path fill-rule="evenodd" clip-rule="evenodd" d="M3.915 11.197l.168-.239-.168.239zm.336 0l.002-.001.002-.002.01-.007.034-.024.125-.095A12.668 12.668 0 006.2 9.385c.965-1.116 1.967-2.709 1.967-4.53 0-1.087-.43-2.132-1.196-2.902a4.072 4.072 0 00-4.452-.89 4.072 4.072 0 00-1.324.89A4.117 4.117 0 000 4.856c0 1.82 1.002 3.413 1.967 4.53a12.668 12.668 0 001.776 1.682l.16.12.009.006.002.002h.001a.288.288 0 00.336 0zm-.168-.239l.168.239-.168-.239zm1.459-6.125a1.458 1.458 0 11-2.917 0 1.458 1.458 0 012.917 0z" fill="#0E1937"/></svg>