<svg width="4" height="9" fill="none" xmlns="http://www.w3.org/2000/svg"><path d="M2.83.111a.693.693 0 00-.514.235.846.846 0 00-.213.567c0 .213.077.417.213.567.136.15.32.235.513.235a.693.693 0 00.514-.235.846.846 0 00.212-.567.846.846 0 00-.212-.567.693.693 0 00-.514-.235zm-.175 2.55c-.576.054-2.15 1.438-2.15 1.438-.096.08-.067.075.01.225.078.144.068.155.16.085.097-.07.257-.182.523-.363 1.026-.727.164.951-.276 3.779-.174 1.4.968.679 1.263.465.29-.208 1.07-.802 1.148-.86.106-.08.029-.145-.053-.279-.059-.09-.117-.026-.117-.026-.314.23-.89.71-.968.406-.092-.305.499-2.395.823-3.833.053-.342.199-1.09-.363-1.037z" fill="#0E1937"/></svg>