<svg width="22" height="19" fill="none" xmlns="http://www.w3.org/2000/svg"><mask id="a" maskUnits="userSpaceOnUse" x=".784" y=".341" width="21" height="19" fill="#000"><path fill="#fff" d="M.784.341h21v19h-21z"/><path d="M3.684 10.822l6.966 6.834a.5.5 0 00.7 0l6.892-6.762a6.34 6.34 0 001.618-6.397C18.608.445 12.93.288 11.457 4.266l-.17.46a.329.329 0 01-.611.015l-.301-.705C8.732.19 3.165.544 2.025 4.57a6.34 6.34 0 001.66 6.252z"/></mask><path d="M3.684 10.822l-.7.714.7-.714zm6.966 6.834l.7-.713-.7.713zm.7 0l.7.714-.7-.714zm6.892-6.762l.7.714-.7-.714zm1.618-6.397l-.956.295.956-.295zm-8.403-.231l.938.347-.938-.347zm-.17.46l.937.347-.937-.347zm-.611.015l-.92.392.92-.392zm-.301-.705l.92-.392-.92.392zm-8.35.534l.962.273-.963-.273zm.959 6.966l6.965 6.834 1.401-1.427-6.965-6.835-1.401 1.428zm6.965 6.834a1.5 1.5 0 002.101 0l-1.4-1.427a.5.5 0 01.7 0l-1.4 1.427zm2.101 0l6.893-6.762-1.401-1.428-6.892 6.763 1.4 1.427zm6.893-6.762a7.34 7.34 0 001.872-7.406l-1.91.59a5.34 5.34 0 01-1.363 5.389l1.4 1.427zm1.872-7.406c-1.533-4.965-8.49-5.157-10.296-.284l1.876.695c1.141-3.081 5.54-2.96 6.51.18l1.91-.59zM10.52 3.918l-.17.46 1.875.695.17-.46-1.875-.695zm-.17.46a.671.671 0 011.246-.03l-1.839.785c.472 1.105 2.051 1.067 2.468-.06l-1.875-.695zm1.246-.03l-.3-.704-1.84.785.301.704 1.84-.785zm-.3-.704C9.28-1.071 2.459-.636 1.062 4.298l1.925.545c.882-3.119 5.195-3.395 6.468-.414l1.84-.785zm-10.233.654a7.34 7.34 0 001.922 7.238l1.4-1.428a5.34 5.34 0 01-1.397-5.265l-1.925-.545z" fill="#0E1937" mask="url(#a)"/></svg>