<svg width="17" height="27" fill="none" xmlns="http://www.w3.org/2000/svg"><path d="M8.5 0c1.796 0 2.374 1.324 2.853 2.647.2.55 4.889 13.643 5.028 14.05.04.102.02.285-.16.346-.159.061-2.593 1.038-2.733 1.08-.14.06-.28-.021-.339-.164-.06-.142-1.057-2.993-1.177-3.319H5.028a289.64 289.64 0 00-1.177 3.32c-.04.121-.2.223-.34.162-.139-.06-2.593-1.018-2.733-1.079a.292.292 0 01-.16-.346c.18-.489 4.79-13.378 5.029-14.05C6.106 1.324 6.704 0 8.5 0zM.26 23.416c-.14 0-.26.122-.26.265v3.054c0 .163.12.265.26.265h16.48c.14 0 .26-.122.26-.265v-3.054a.267.267 0 00-.26-.265H.26zm8.22-19.14l-2.354 7.188h4.728L8.52 4.276h-.04z" fill="#B0B0B0"/></svg>