<svg width="77" height="27" fill="none" xmlns="http://www.w3.org/2000/svg"><path fill-rule="evenodd" clip-rule="evenodd" d="M71.892 10.572c0-.813.65-1.496 1.431-1.496.813 0 1.431.683 1.431 1.496 0 .814-.618 1.497-1.43 1.497-.782.032-1.432-.65-1.432-1.497zm1.431 1.171c.618 0 1.074-.52 1.074-1.138 0-.618-.488-1.139-1.074-1.139-.618 0-1.073.52-1.073 1.139 0 .618.488 1.138 1.073 1.138zm-.195-.488h-.293V9.922h.553c.098 0 .228 0 .325.065a.4.4 0 01.163.325c0 .163-.098.293-.228.325l.228.586h-.325l-.195-.52h-.228v.553zm0-.748h.163c.065 0 .13 0 .162-.032a.248.248 0 00.065-.163.246.246 0 00-.065-.13c-.032-.033-.13-.033-.162-.033h-.163c.032.033 0 .358 0 .358zM51.43.586l-.39 2.57c-.846-.456-1.464-.619-2.147-.619-1.79 0-3.025 1.822-3.025 4.392 0 1.79.845 2.863 2.244 2.863.586 0 1.236-.196 2.05-.618l-.423 2.7c-.879.26-1.464.357-2.115.357-2.57 0-4.196-1.951-4.196-5.074C43.428 2.96 45.64 0 48.828 0c.423 0 .78.033 1.073.13l1.009.26c.228.098.293.098.52.196zm-7.97 1.756c-.065-.032-.162-.032-.227-.032-.781 0-1.236.423-1.985 1.561l.228-1.464h-2.18l-1.463 9.564h2.407c.878-5.855 1.073-6.864 2.244-6.864h.163c.228-1.138.488-1.984.91-2.765h-.097zm-14.313 9.499c-.65.228-1.171.325-1.724.325-1.204 0-1.887-.748-1.887-2.114 0-.26.033-.553.065-.878l.163-.944.098-.748 1.04-6.539h2.375l-.293 1.4h1.236l-.357 2.309h-1.171l-.651 4.066c-.032.163-.032.293-.032.39 0 .488.26.716.813.716.293 0 .488-.032.65-.097l-.325 2.114zm-9.466-6.408c0 1.203.553 2.049 1.821 2.667.944.488 1.139.618 1.139 1.074 0 .585-.423.878-1.366.878a5.786 5.786 0 01-2.147-.39l-.326 2.211.098.033.423.098c.163.032.358.065.618.097.553.033 1.008.098 1.334.098 2.505 0 3.676-1.009 3.676-3.188 0-1.301-.488-2.082-1.692-2.668-1.008-.488-1.106-.585-1.106-1.04 0-.521.39-.781 1.171-.781.488 0 1.106.065 1.724.162l.358-2.212a11.363 11.363 0 00-2.114-.195c-2.7-.065-3.611 1.366-3.611 3.156zm50.844 6.538h-2.277l.098-.943c-.65.748-1.334 1.073-2.212 1.073-1.757 0-2.895-1.594-2.895-3.968 0-3.188 1.789-5.888 3.903-5.888.944 0 1.627.422 2.31 1.3l.52-3.35h2.375l-1.822 11.776zM66.98 9.727c1.138 0 1.919-1.334 1.919-3.221 0-1.204-.455-1.887-1.269-1.887-1.073 0-1.854 1.334-1.854 3.22-.032 1.237.39 1.888 1.204 1.888zm-30.253 2.049a8.03 8.03 0 01-2.473.39c-2.667 0-4.066-1.464-4.066-4.294 0-3.285 1.79-5.692 4.196-5.692 1.985 0 3.22 1.366 3.22 3.48 0 .683-.097 1.4-.292 2.375H32.53c-.032.163-.032.228-.032.293 0 1.138.715 1.691 2.114 1.691.846 0 1.627-.195 2.505-.618-.033 0-.39 2.375-.39 2.375zM35.393 6.05c.032-.196.032-.358.032-.488 0-.781-.422-1.236-1.138-1.236-.748 0-1.301.618-1.53 1.724h2.636zm-25.341 5.92H7.677l1.366-9.043-3.09 9.043H4.326l-.195-8.978-1.464 8.978H.423L2.343.195H5.79l.098 7.287L8.198.195h3.74l-1.886 11.776zm6.18-4.261c-.26-.033-.357-.033-.552-.033-1.367 0-2.05.488-2.05 1.464 0 .586.358.976.878.976.976-.033 1.692-1.009 1.725-2.407zm1.757 4.261h-1.984l.032-1.008c-.618.813-1.398 1.138-2.504 1.138-1.302 0-2.18-1.073-2.18-2.602 0-2.342 1.562-3.676 4.196-3.676.293 0 .619.032.976.065.065-.325.098-.455.098-.618 0-.618-.423-.878-1.529-.878-.683 0-1.464.097-1.984.292l-.358.098-.228.065.325-2.147c1.204-.358 1.985-.52 2.863-.52 2.05 0 3.155.975 3.155 2.797 0 .488-.032.813-.195 1.92l-.488 3.415-.097.618-.065.488-.033.358c.033-.065 0 .195 0 .195zm37.573-4.26c-.228-.033-.358-.033-.553-.033-1.367 0-2.05.488-2.05 1.464 0 .586.358.976.878.976.976-.033 1.692-1.009 1.725-2.407zm1.724 4.261H55.3l.033-1.008c-.618.813-1.399 1.138-2.505 1.138-1.301 0-2.18-1.073-2.18-2.602 0-2.342 1.562-3.676 4.197-3.676.26 0 .618.032.976.065.065-.325.097-.455.097-.618 0-.618-.422-.878-1.528-.878-.684 0-1.464.097-1.985.292l-.358.098-.227.065.325-2.147c1.203-.358 1.984-.52 2.863-.52 2.049 0 3.155.975 3.155 2.797 0 .488-.032.813-.195 1.92l-.488 3.383-.065.618-.065.488-.033.325-.032.26zm6.7-9.629c-.064-.032-.162-.032-.227-.032-.78 0-1.236.423-1.984 1.561l.228-1.464h-2.18l-1.464 9.564h2.407c.879-5.855 1.074-6.864 2.245-6.864h.163c.162-.976.488-1.887.91-2.765h-.097z" fill="#B0B0B0"/><path fill-rule="evenodd" clip-rule="evenodd" d="M53.935 21.242c0 2.18-.683 3.448-1.724 3.448-.78.033-1.236-.846-1.236-2.114 0-1.53.683-3.253 1.789-3.253.878 0 1.171.943 1.171 1.92zm2.375.033c0-2.408-1.204-4.294-3.416-4.294-2.57 0-4.261 2.277-4.261 5.627 0 2.408 1.008 4.392 3.415 4.392 2.44 0 4.262-1.724 4.262-5.725zm-6.93-5.953l-.357 2.57c-.813-.456-1.366-.619-1.984-.619-1.66 0-2.83 1.822-2.83 4.392 0 1.79.78 2.863 2.081 2.863.553 0 1.172-.195 1.92-.618l-.39 2.7c-.814.26-1.367.357-1.985.357-2.407 0-3.936-1.951-3.936-5.074 0-4.197 2.082-7.157 5.042-7.157.39 0 .716.033 1.009.13l.91.26c.26.066.326.098.52.196zm-14.8 1.724c-.065-.033-.163-.033-.228-.033-.748 0-1.139.423-1.854 1.562l.227-1.464h-2.017l-1.366 9.564h2.245c.813-5.856 1.008-6.864 2.082-6.864.065 0 .065 0 .162.032a10.7 10.7 0 01.846-2.765l-.097-.032zm29.212 9.564h-2.115l.098-.944c-.618.748-1.269 1.074-2.082 1.074-1.627 0-2.7-1.594-2.7-3.969 0-3.188 1.659-5.888 3.643-5.888.879 0 1.53.423 2.147 1.334l.488-3.35h2.212L63.792 26.61zm-3.318-2.245c1.073 0 1.789-1.334 1.789-3.22 0-1.204-.423-1.855-1.204-1.855-1.008 0-1.724 1.334-1.724 3.22 0 1.204.39 1.855 1.139 1.855zm-46.876 2.212a7.03 7.03 0 01-2.31.39c-2.505 0-3.806-1.463-3.806-4.293 0-3.286 1.659-5.693 3.904-5.693 1.854 0 3.025 1.333 3.025 3.48 0 .684-.098 1.4-.293 2.375H9.694c-.033.163-.033.228-.033.293 0 1.106.684 1.659 1.985 1.659.813 0 1.529-.195 2.31-.618l-.358 2.407zm-1.269-5.693c0-.195.032-.358.032-.488 0-.78-.39-1.236-1.073-1.236-.716 0-1.204.618-1.431 1.724h2.472zm27.878 5.693a7.03 7.03 0 01-2.31.39c-2.504 0-3.805-1.463-3.805-4.293 0-3.286 1.659-5.693 3.903-5.693 1.855 0 3.026 1.333 3.026 3.48 0 .684-.098 1.4-.293 2.375H36.27c-.032.163-.032.228-.032.293 0 1.106.683 1.659 1.984 1.659.813 0 1.529-.195 2.31-.618l-.326 2.407zm-1.236-5.693c.033-.195.033-.358.033-.488 0-.78-.39-1.236-1.074-1.236-.715 0-1.203.618-1.431 1.724h2.472zm32.465 5.693a7.03 7.03 0 01-2.31.39c-2.504 0-3.805-1.463-3.805-4.293 0-3.286 1.659-5.693 3.936-5.693 1.854 0 3.025 1.333 3.025 3.48 0 .684-.097 1.4-.293 2.375h-4.456c-.033.163-.033.228-.033.293 0 1.106.683 1.659 1.985 1.659.813 0 1.528-.195 2.31-.618l-.359 2.407zm-1.268-5.693c0-.195.032-.358.032-.488 0-.78-.39-1.236-1.073-1.236-.716 0-1.204.618-1.432 1.724h2.473zM6.96 17.501c-.422-.293-1.04-.553-1.854-.553-.91 0-1.626.195-1.626 1.139 0 1.691 3.285 1.073 3.285 4.717 0 3.318-2.18 4.196-4.131 4.196-.878 0-1.887-.293-2.635-.618l.553-2.44c.455.423 1.334.683 2.114.683.716 0 1.79-.195 1.79-1.431 0-1.92-3.286-1.204-3.286-4.587 0-3.09 1.92-4.001 3.806-4.001 1.041 0 2.05.163 2.603.553l-.619 2.342zm13.175 9.076c-.455.228-1.073.358-1.984.358-1.952 0-3.156-1.952-3.156-4.327 0-3.123 1.757-5.595 4.327-5.595.553 0 1.431.228 2.114.618l-.488 2.277c-.488-.325-.975-.52-1.496-.52-1.203 0-2.05 1.106-2.05 3.058 0 1.138.619 2.05 1.595 2.05.585 0 1.008-.131 1.496-.424l-.358 2.505zm8.393-2.407c-.13.813-.195 1.659-.293 2.472H26.09l.163-1.529h-.033c-.683 1.041-1.366 1.757-2.602 1.757-1.334 0-2.082-1.431-2.082-3.286 0-.65.032-1.008.163-1.984l.618-4.424h2.407l-.65 4.457c-.066.487-.163.943-.163 1.463 0 .553.26 1.139.91 1.074.977 0 1.562-1.204 1.725-2.603l.683-4.391h2.31L28.53 24.17zm45.12 2.342h-.358v-1.561h-.52v-.358h1.398v.358h-.52v1.561zm2.407 0h-.358v-1.594l-.325 1.594h-.358l-.326-1.594v1.594h-.357v-1.92h.553l.292 1.53h.033l.293-1.53h.52c.033 0 .033 1.92.033 1.92z" fill="#E5E5E4"/></svg>