<svg width="37" height="29" fill="none" xmlns="http://www.w3.org/2000/svg"><path d="M6.647 28.265v-1.883a1.116 1.116 0 00-1.18-1.191 1.161 1.161 0 00-1.054.533 1.102 1.102 0 00-.99-.533.993.993 0 00-.879.445v-.37h-.652v2.999h.658v-1.663a.701.701 0 01.734-.797c.433 0 .653.283.653.79v1.67h.658v-1.663a.707.707 0 01.734-.797c.446 0 .659.283.659.79v1.67h.659zm9.748-3h-1.066v-.909h-.66v.91h-.608v.596h.609v1.367c0 .697.27 1.11 1.041 1.11a1.53 1.53 0 00.816-.231l-.188-.559a1.204 1.204 0 01-.577.17c-.327 0-.433-.201-.433-.502v-1.355h1.066v-.596zm5.564-.074a.885.885 0 00-.79.439v-.364h-.646v2.999h.652v-1.682c0-.495.213-.771.64-.771.14-.002.278.023.408.075l.2-.615a1.397 1.397 0 00-.464-.081zm-8.412.313a2.242 2.242 0 00-1.223-.313c-.76 0-1.248.364-1.248.96 0 .489.363.79 1.034.884l.308.044c.357.05.527.144.527.313 0 .233-.239.364-.684.364a1.6 1.6 0 01-.997-.313l-.308.508c.38.265.835.401 1.299.389.865 0 1.367-.408 1.367-.979 0-.527-.395-.803-1.047-.897l-.308-.044c-.282-.038-.508-.094-.508-.295 0-.22.213-.351.571-.351.328.005.65.093.935.257l.282-.527zm17.477-.313a.885.885 0 00-.79.439v-.364h-.647v2.999h.653v-1.682c0-.495.213-.771.64-.771.14-.002.278.023.407.075l.201-.615a1.396 1.396 0 00-.464-.081zm-8.406 1.574a1.515 1.515 0 001.6 1.575 1.57 1.57 0 001.079-.358l-.314-.527c-.226.172-.5.267-.784.27a.962.962 0 010-1.92c.283.004.558.098.784.27l.314-.527a1.571 1.571 0 00-1.08-.357 1.515 1.515 0 00-1.6 1.574zm6.11 0v-1.5h-.652v.365a1.137 1.137 0 00-.948-.44 1.577 1.577 0 000 3.15 1.138 1.138 0 00.948-.44v.365h.652v-1.5zm-2.428 0a.908.908 0 11.91.96.899.899 0 01-.91-.96zm-7.873-1.574a1.576 1.576 0 00.044 3.149c.448.015.886-.134 1.23-.42l-.32-.484a1.429 1.429 0 01-.872.314.833.833 0 01-.897-.734h2.227c.006-.081.013-.163.013-.25-.007-.935-.584-1.575-1.425-1.575zm-.012.583a.745.745 0 01.759.728h-1.556a.772.772 0 01.797-.728zm16.367.991v-2.704h-.653v1.569a1.138 1.138 0 00-.947-.44 1.577 1.577 0 000 3.15 1.138 1.138 0 00.947-.44v.365h.653v-1.5zm1.087 1.065a.299.299 0 01.215.087.3.3 0 01.088.21.293.293 0 01-.088.211.313.313 0 01-.215.088.304.304 0 01-.305-.298.294.294 0 01.185-.275.31.31 0 01.12-.023zm0 .53a.222.222 0 00.163-.068.234.234 0 00-.073-.378.234.234 0 00-.256.05.234.234 0 00.166.396zm.018-.372a.126.126 0 01.082.024.079.079 0 01.029.065.075.075 0 01-.023.056.11.11 0 01-.066.028l.09.104h-.07l-.084-.104h-.027v.104h-.06v-.277h.129zm-.07.052v.074h.069a.067.067 0 00.037-.01.03.03 0 00.01-.011.032.032 0 00.004-.016c0-.006 0-.01-.003-.016a.03.03 0 00-.01-.012.067.067 0 00-.038-.009h-.068zm-3.463-1.275a.907.907 0 11.91.96.898.898 0 01-.91-.96zm-22.031 0v-1.5H9.67v.365a1.138 1.138 0 00-.947-.44 1.577 1.577 0 000 3.15 1.138 1.138 0 00.947-.44v.365h.653v-1.5zm-2.428 0a.908.908 0 11.91.96.898.898 0 01-.91-.96z" fill="#777"/><path d="M23.215 2.415h-9.881v17.758h9.881V2.415z" fill="#9D9D9D"/><path d="M13.959 11.293a11.273 11.273 0 014.313-8.879 11.293 11.293 0 100 17.758 11.274 11.274 0 01-4.313-8.879z" fill="#B0B0B0"/><path d="M36.546 11.293a11.292 11.292 0 01-18.272 8.879 11.295 11.295 0 000-17.757 11.293 11.293 0 0118.272 8.878z" fill="#E5E5E4"/><path d="M35.468 18.29v-.363h.147v-.074h-.373v.074h.146v.364h.08zm.725 0v-.438h-.114l-.132.302-.132-.302h-.114v.439h.08v-.33l.124.284h.084l.123-.286v.332h.081z" fill="#B0B0B0"/></svg>