<svg width="60" height="17" fill="none" xmlns="http://www.w3.org/2000/svg"><path d="M33.229 1.798l-3.764 8.156h-.377V.02h-5.353v16.813h4.538c1.192 0 2.279-.69 2.78-1.778L34.818 6.9h.376v9.933h5.354V.02H36.01a3.06 3.06 0 00-2.781 1.777zm-20.076.419l-2.237 7.737h-.377L8.302 2.217A3.05 3.05 0 005.353 0H0v16.813h5.353V6.88h.377l3.053 9.933h3.827l3.053-9.933h.376v9.933h5.353V0H16.04a3.08 3.08 0 00-2.886 2.217zm29.695 5.437v9.18h5.332V11.48h5.75a5.705 5.705 0 005.396-3.826H42.848z" fill="#B0B0B0"/><path d="M53.93.021H42.075a8.4 8.4 0 008.26 6.88h9.2c.084-.377.105-.753.105-1.15C59.66 2.593 57.09.02 53.93.02z" fill="#B7B7B7"/></svg>