<svg width="52" height="23" fill="none" xmlns="http://www.w3.org/2000/svg"><path d="M20.704 11.786l-2.56 6.913-.274-1.406c-.64-1.723-2.026-3.53-3.636-4.269l2.349 8.882h2.777l4.129-10.134h-2.785v.014zm2.201 10.141l1.638-10.155h2.623l-1.638 10.155h-2.623zm12.131-9.902a6.502 6.502 0 00-2.35-.428c-2.594 0-4.416 1.378-4.43 3.347-.014 1.463 1.301 2.271 2.293 2.757 1.027.499 1.364.816 1.364 1.258-.007.683-.816.992-1.568.992-1.048 0-1.603-.155-2.468-.527l-.338-.162-.366 2.271c.612.282 1.744.528 2.926.542 2.75 0 4.543-1.364 4.564-3.467.014-1.16-.69-2.032-2.201-2.757-.915-.471-1.477-.78-1.47-1.259 0-.422.471-.872 1.505-.872a4.531 4.531 0 011.962.394l.232.12.345-2.209zm6.722-.239h-2.025c-.626 0-1.097.176-1.378.844l-3.89 9.304h2.75s.45-1.252.556-1.526l3.355.007c.084.352.316 1.52.316 1.52h2.44l-2.122-10.15zm-3.235 6.54c.218-.583 1.041-2.84 1.041-2.84-.014.028.218-.584.352-.971l.176.872.612 2.933c-.408.006-1.667.006-2.18.006z" fill="#B0B0B0"/><path d="M15.76 11.78h-4.227l-.028.175c3.284.844 5.457 2.905 6.357 5.345l-.914-4.67c-.155-.64-.619-.83-1.189-.85z" fill="#E5E5E4"/><path d="M3.6 9.325H1.935L0 .633l1.85-.31 1.322 6.8L6.533.416h1.772l-4.704 8.91zm8.7-2.841H8.312C8.2 7.694 8.762 8.22 9.72 8.22c.795 0 1.498-.295 2.25-.774l-.007 1.21a4.798 4.798 0 01-2.602.76c-1.737 0-2.883-.992-2.539-3.229.31-2.018 1.71-3.241 3.327-3.241 1.863 0 2.482 1.399 2.215 3.164-.014.127-.056.281-.063.373zM9.95 4.015c-.618 0-1.195.486-1.462 1.505h2.469c.042-.963-.26-1.505-1.006-1.505zm4.945 1.709l-.549 3.559h-1.54l.957-6.21h1.315v1.245c.52-.717 1.23-1.322 2.208-1.379l.007 1.534a3.454 3.454 0 00-2.398 1.251zm2.37 3.559l.956-6.21h1.54l-.95 6.21h-1.546zm1.898-7.25c-.513 0-.872-.36-.787-.873.084-.527.548-.9 1.062-.9.499 0 .858.373.773.9-.077.514-.541.872-1.048.872zm4.874-.655c-.527 0-.844.232-.928.788l-.141.914h1.181v1.26h-1.378l-.76 4.943H20.48l.759-4.951h-.9l.197-1.259h.9l.162-1.069c.21-1.378 1.167-1.891 2.44-1.891.267 0 .471.028.626.049l.014 1.259c-.155-.014-.38-.043-.64-.043zm.013 7.905l.957-6.21h1.54l-.95 6.21h-1.546zm1.907-7.25c-.514 0-.873-.36-.795-.873.084-.527.548-.9 1.062-.9.5 0 .858.373.773.9-.077.514-.541.872-1.04.872zm6.582 4.451h-3.987c-.106 1.21.45 1.737 1.406 1.737.795 0 1.498-.295 2.25-.774l-.007 1.21a4.798 4.798 0 01-2.602.76c-1.737 0-2.883-.992-2.538-3.229.31-2.018 1.709-3.241 3.326-3.241 1.864 0 2.483 1.399 2.215 3.164-.014.127-.056.281-.063.373zM30.19 4.015c-.619 0-1.195.486-1.463 1.505h2.469c.042-.963-.26-1.505-1.006-1.505zm6.913 5.268l.007-.865c-.52.527-1.195.991-2.053.991-1.301 0-2.194-.963-1.87-3.059.358-2.313 1.785-3.34 3.227-3.34.59 0 1.055.105 1.407.232l.464-2.996L39.867 0l-1.428 9.283h-1.336zm.52-4.768c-.358-.183-.64-.267-1.167-.267-.809 0-1.505.654-1.709 2.018-.182 1.21.24 1.772.922 1.772.562 0 1.055-.337 1.547-.85l.408-2.673zm5.535 4.831a5.58 5.58 0 01-1.878-.31l1.013-6.596 1.196-.183-.437 2.855c.352-.309.837-.625 1.428-.625.992 0 1.66.738 1.414 2.32-.268 1.73-1.337 2.539-2.736 2.539zm.865-3.833c-.387 0-.78.26-1.125.612l-.33 2.131c.231.084.386.127.717.127.738 0 1.258-.45 1.42-1.52.14-.9-.162-1.35-.682-1.35zm4.627 4.03c-.597 1.16-1.188 1.52-2.095 1.52-.204 0-.316-.022-.422-.05l-.007-.963c.148.042.31.07.534.07.338 0 .64-.155.837-.5l.155-.309-.992-4.634 1.245-.155.577 3.347 1.554-3.284h1.16l-2.545 4.958zm-27.946 2.243l-2.56 6.913-.274-1.406c-.64-1.723-2.026-3.53-3.636-4.269l2.349 8.882h2.777l4.129-10.134h-2.785v.014zm2.201 10.141l1.638-10.155h2.623l-1.638 10.155h-2.623zm12.131-9.902a6.502 6.502 0 00-2.35-.428c-2.594 0-4.416 1.378-4.43 3.347-.014 1.463 1.301 2.271 2.293 2.757 1.027.499 1.364.816 1.364 1.258-.007.683-.816.992-1.568.992-1.048 0-1.603-.155-2.468-.527l-.338-.162-.366 2.271c.612.282 1.744.528 2.926.542 2.75 0 4.543-1.364 4.564-3.467.014-1.16-.69-2.032-2.201-2.757-.915-.471-1.477-.78-1.47-1.259 0-.422.471-.872 1.505-.872a4.531 4.531 0 011.962.394l.232.12.345-2.209zm6.722-.239h-2.025c-.626 0-1.097.176-1.378.844l-3.89 9.304h2.75s.45-1.252.556-1.526l3.355.007c.084.352.316 1.52.316 1.52h2.44l-2.122-10.15zm-3.235 6.54c.218-.583 1.041-2.84 1.041-2.84-.014.028.218-.584.352-.971l.176.872.612 2.933c-.408.006-1.667.006-2.18.006z" fill="#B0B0B0"/><path d="M15.76 11.78h-4.227l-.028.175c3.284.844 5.457 2.905 6.357 5.345l-.914-4.67c-.155-.64-.619-.83-1.189-.85z" fill="#E5E5E4"/><path d="M3.6 9.325H1.935L0 .633l1.85-.31 1.322 6.8L6.533.416h1.772l-4.704 8.91zm8.7-2.841H8.312C8.2 7.694 8.762 8.22 9.72 8.22c.795 0 1.498-.295 2.25-.774l-.007 1.21a4.798 4.798 0 01-2.602.76c-1.737 0-2.883-.992-2.539-3.229.31-2.018 1.71-3.241 3.327-3.241 1.863 0 2.482 1.399 2.215 3.164-.014.127-.056.281-.063.373zM9.95 4.015c-.618 0-1.195.486-1.462 1.505h2.469c.042-.963-.26-1.505-1.006-1.505zm4.945 1.709l-.549 3.559h-1.54l.957-6.21h1.315v1.245c.52-.717 1.23-1.322 2.208-1.379l.007 1.534a3.454 3.454 0 00-2.398 1.251zm2.37 3.559l.956-6.21h1.54l-.95 6.21h-1.546zm1.898-7.25c-.513 0-.872-.36-.787-.873.084-.527.548-.9 1.062-.9.499 0 .858.373.773.9-.077.514-.541.872-1.048.872zm4.874-.655c-.527 0-.844.232-.928.788l-.141.914h1.181v1.26h-1.378l-.76 4.943H20.48l.759-4.951h-.9l.197-1.259h.9l.162-1.069c.21-1.378 1.167-1.891 2.44-1.891.267 0 .471.028.626.049l.014 1.259c-.155-.014-.38-.043-.64-.043zm.013 7.905l.957-6.21h1.54l-.95 6.21h-1.546zm1.907-7.25c-.514 0-.873-.36-.795-.873.084-.527.548-.9 1.062-.9.5 0 .858.373.773.9-.077.514-.541.872-1.04.872zm6.582 4.451h-3.987c-.106 1.21.45 1.737 1.406 1.737.795 0 1.498-.295 2.25-.774l-.007 1.21a4.798 4.798 0 01-2.602.76c-1.737 0-2.883-.992-2.538-3.229.31-2.018 1.709-3.241 3.326-3.241 1.864 0 2.483 1.399 2.215 3.164-.014.127-.056.281-.063.373zM30.19 4.015c-.619 0-1.195.486-1.463 1.505h2.469c.042-.963-.26-1.505-1.006-1.505zm6.913 5.268l.007-.865c-.52.527-1.195.991-2.053.991-1.301 0-2.194-.963-1.87-3.059.358-2.313 1.785-3.34 3.227-3.34.59 0 1.055.105 1.407.232l.464-2.996L39.867 0l-1.428 9.283h-1.336zm.52-4.768c-.358-.183-.64-.267-1.167-.267-.809 0-1.505.654-1.709 2.018-.182 1.21.24 1.772.922 1.772.562 0 1.055-.337 1.547-.85l.408-2.673zm5.535 4.831a5.58 5.58 0 01-1.878-.31l1.013-6.596 1.196-.183-.437 2.855c.352-.309.837-.625 1.428-.625.992 0 1.66.738 1.414 2.32-.268 1.73-1.337 2.539-2.736 2.539zm.865-3.833c-.387 0-.78.26-1.125.612l-.33 2.131c.231.084.386.127.717.127.738 0 1.258-.45 1.42-1.52.14-.9-.162-1.35-.682-1.35zm4.627 4.03c-.597 1.16-1.188 1.52-2.095 1.52-.204 0-.316-.022-.422-.05l-.007-.963c.148.042.31.07.534.07.338 0 .64-.155.837-.5l.155-.309-.992-4.634 1.245-.155.577 3.347 1.554-3.284h1.16l-2.545 4.958z" fill="#B0B0B0"/></svg>