<svg width="51" height="17" fill="none" xmlns="http://www.w3.org/2000/svg"><path d="M22.079 16.059h-4.143L20.542.254h4.142L22.08 16.059zM14.435.254l-3.972 10.86-.47-2.324-1.41-7.1S8.414.254 6.62.254H.085L0 .507S2.007.93 4.356 2.324l3.63 13.735h4.313L18.92.254h-4.484zm32.712 15.805h3.801L47.618.254h-3.332c-1.537 0-1.922 1.183-1.922 1.183l-6.192 14.622h4.313l.854-2.367h5.296l.512 2.367zm-4.57-5.62l2.179-5.917 1.238 5.916h-3.416zm-6.106-6.382l.598-3.38S35.233 0 33.311 0c-2.05 0-6.961.887-6.961 5.24 0 4.1 5.765 4.142 5.765 6.297 0 2.155-5.167 1.775-6.876.423l-.597 3.55s1.836.887 4.697.887c2.819 0 7.132-1.437 7.132-5.41 0-4.099-5.808-4.479-5.808-6.296 0-1.86 4.057-1.606 5.808-.634z" fill="#005CA9"/><path d="M9.993 8.79l-1.41-7.1S8.414.254 6.62.254H.085L0 .507s3.16.634 6.15 3.085C9.054 5.874 9.993 8.79 9.993 8.79z" fill="#F7A823"/></svg>