<svg width="87" height="28" fill="none" xmlns="http://www.w3.org/2000/svg"><path d="M37.702 27.423H30.63L35.077.433h7.074l-4.449 26.99zM24.649.433l-6.782 18.546-.803-3.969-2.406-12.123S14.366.433 11.303.433H.146L0 .866s3.427.722 7.438 3.103l6.199 23.454h7.366L32.306.433h-7.657zm55.861 26.99H87L81.312.433h-5.688c-2.626 0-3.282 2.02-3.282 2.02l-10.574 24.97h7.365l1.459-4.042h9.043l.875 4.042zm-7.803-9.598l3.719-10.103 2.115 10.103h-5.834zM62.278 6.928L63.3 1.155S60.163 0 56.882 0c-3.5 0-11.887 1.515-11.887 8.948 0 7 9.845 7.073 9.845 10.753 0 3.68-8.824 3.031-11.741.722l-1.021 6.062S45.214 28 50.1 28c4.813 0 12.178-2.454 12.178-9.237 0-7-9.918-7.65-9.918-10.753 0-3.175 6.928-2.742 9.918-1.082z" fill="#B0B0B0"/><path d="M17.064 15.01L14.658 2.887S14.366.433 11.303.433H.146L0 .866s5.396 1.082 10.501 5.268c4.96 3.897 6.563 8.876 6.563 8.876z" fill="#E6E5E4"/></svg>